<svg version="1.1" id="Layer_1" xmlns="http://www.w3.org/2000/svg" xmlns:xlink="http://www.w3.org/1999/xlink" x="0px" y="0px"
	 width="100%" viewBox="0 0 1024 1024" enable-background="new 0 0 1024 1024" xml:space="preserve">
<path fill="#000000" opacity="1.000000" stroke="none" 
	d="
M397.225983,867.287476 
	C404.945160,854.100098 404.945160,854.100098 418.986481,857.246582 
	C426.731415,858.982117 426.537201,859.122742 427.364624,867.483826 
	C428.886963,882.866455 430.776611,898.212769 432.539825,913.571106 
	C432.611389,914.194458 432.954681,914.786621 433.484558,916.270264 
	C437.695526,909.086914 441.549347,902.549377 445.367126,895.990906 
	C450.392792,887.357422 455.475006,878.755005 460.350067,870.036987 
	C461.899323,867.266479 463.816589,866.240295 466.856842,866.955627 
	C469.610199,867.603516 472.393127,868.129028 475.169678,868.674622 
	C484.371460,870.482727 484.233917,870.492188 485.242188,879.627625 
	C488.050415,905.072449 490.935394,930.509216 493.924530,955.933350 
	C494.353394,959.580872 493.200775,960.560303 489.835297,959.647156 
	C488.554840,959.299683 487.209808,959.197205 485.915802,958.891602 
	C469.788055,955.082947 474.067108,958.595642 471.839020,942.379272 
	C469.761932,927.261353 468.433502,912.040588 466.597931,895.239868 
	C460.196320,906.260803 454.554321,915.973083 448.913239,925.686035 
	C445.234070,932.020874 441.476166,938.312073 437.915436,944.712891 
	C436.405548,947.427124 434.708496,948.269104 431.473450,947.646484 
	C417.380920,944.934631 417.289490,945.064819 415.566833,930.748169 
	C413.741699,915.580078 412.063446,900.394348 410.263947,884.718628 
	C408.315979,885.947449 407.710541,887.656006 406.869659,889.121826 
	C398.584839,903.564087 390.218018,917.961426 382.143890,932.520935 
	C380.160675,936.097168 377.903137,937.221985 374.113403,936.022400 
	C369.868774,934.678711 365.240845,934.717590 360.370361,932.191772 
	C372.638489,910.579407 384.836884,889.089966 397.225983,867.287476 
z"/>
<path fill="#000000" opacity="1.000000" stroke="none" 
	d="
M469.514709,183.802917 
	C453.474792,187.878616 437.435211,189.851807 421.635101,193.068481 
	C417.359131,193.939011 416.480469,191.389984 415.922546,188.182953 
	C412.188751,166.720123 408.454010,145.257446 404.709991,123.796402 
	C404.224731,121.014961 403.714203,118.237198 403.163330,115.468086 
	C401.959991,109.419350 402.253845,108.880821 408.089020,107.826767 
	C420.359558,105.610260 432.622559,103.342804 444.924744,101.315071 
	C450.684174,100.365768 456.547302,100.144424 462.305939,101.462776 
	C478.857025,105.251869 485.048859,121.608383 475.240997,135.487213 
	C474.764984,136.160828 474.271576,136.822128 473.877838,137.363297 
	C473.966064,138.615143 474.829559,138.873703 475.584503,139.126663 
	C486.000641,142.616867 490.575165,150.465164 490.826874,160.823730 
	C491.065247,170.632187 485.193024,176.802399 476.834686,180.888000 
	C474.602203,181.979263 472.208710,182.741180 469.514709,183.802917 
M462.473724,150.887878 
	C452.513580,149.663116 443.175842,153.347595 433.530487,154.602631 
	C431.746063,154.834824 431.214142,156.353348 431.506805,158.036255 
	C432.217499,162.123322 432.930176,166.211090 433.732544,170.280731 
	C434.091522,172.101379 434.615234,174.155624 437.089111,173.766876 
	C446.088013,172.352753 455.288300,171.785934 463.858429,168.395462 
	C467.671600,166.886902 469.991791,163.940552 469.729950,159.480896 
	C469.477234,155.176575 467.476685,152.289688 462.473724,150.887878 
M427.450867,134.881409 
	C427.905060,136.277237 428.359283,137.673050 428.947052,139.479309 
	C435.976837,138.209305 442.836365,137.036331 449.662048,135.691605 
	C451.428070,135.343674 453.181946,134.633286 454.777130,133.781677 
	C458.136261,131.988358 460.042542,129.200165 459.566315,125.236809 
	C459.098541,121.343521 456.863220,118.991226 453.072784,117.915756 
	C450.932129,117.308372 448.776031,117.113510 446.654022,117.433899 
	C440.738007,118.327110 434.848846,119.400032 428.953949,120.429916 
	C426.211121,120.909111 424.863190,122.174065 425.728729,125.281837 
	C426.526184,128.145111 426.838257,131.143570 427.450867,134.881409 
z"/>
<path fill="#000000" opacity="1.000000" stroke="none" 
	d="
M228.565765,718.489258 
	C232.395660,724.764465 235.944504,730.787598 239.717407,736.666992 
	C241.426056,739.329651 241.222702,740.981323 238.406067,742.703308 
	C216.406189,756.153442 194.439743,769.659119 172.546219,783.281494 
	C169.484024,785.186829 167.965607,784.458008 166.262711,781.616150 
	C159.934738,771.055664 153.190262,760.738953 147.056671,750.069397 
	C138.601852,735.362000 135.963760,719.969849 144.890717,704.541626 
	C160.871674,676.921936 197.183517,675.016785 216.881149,700.666626 
	C221.122330,706.189392 224.565414,712.325195 228.565765,718.489258 
M165.174973,711.677246 
	C160.808060,715.958801 158.488678,721.228027 158.378021,727.269226 
	C158.147278,739.867188 166.588226,748.442627 172.607574,758.726379 
	C186.810562,750.004578 200.377228,741.660889 213.960846,733.344910 
	C216.169495,731.992798 215.585342,730.390808 214.543854,728.694336 
	C212.283524,725.012451 210.006500,721.340759 207.746414,717.658691 
	C197.355362,700.729492 180.784500,698.177795 165.174973,711.677246 
z"/>
<path fill="#000000" opacity="1.000000" stroke="none" 
	d="
M934.107544,437.187683 
	C936.104248,446.761169 937.532776,456.029694 935.794067,465.301697 
	C931.970886,485.688690 917.390015,498.427368 896.465820,500.186401 
	C877.640991,501.769012 860.561951,490.155792 853.713806,470.807861 
	C849.360596,458.508728 848.406494,445.449768 845.821045,432.754944 
	C843.744080,422.557068 843.901062,422.316467 854.013245,420.360748 
	C877.183350,415.879761 900.409851,411.689667 923.575867,407.188019 
	C927.469238,406.431488 928.610901,408.025238 929.205261,411.341064 
	C930.727356,419.831757 932.402161,428.295074 934.107544,437.187683 
M893.353821,433.946716 
	C883.964294,435.925537 874.367432,436.934265 865.014954,439.642700 
	C865.144348,445.477814 866.798645,450.733887 867.755920,456.087280 
	C868.307617,459.172241 869.257141,462.252197 870.488586,465.137665 
	C875.160583,476.084412 885.510620,480.992035 898.518250,478.644012 
	C910.197083,476.535889 918.045959,467.963745 918.892456,456.628815 
	C919.473083,448.854614 917.313538,441.479156 916.056763,433.955200 
	C915.490112,430.562683 913.936279,430.052277 910.888000,430.711639 
	C905.362122,431.906982 899.761780,432.758484 893.353821,433.946716 
z"/>
<path fill="#000000" opacity="1.000000" stroke="none" 
	d="
M275.792419,778.880737 
	C288.695465,782.606873 297.531158,790.156006 301.536560,803.613525 
	C304.735779,799.006958 307.229675,801.325195 309.960815,803.513977 
	C320.054749,811.603333 320.147827,811.614441 312.064423,821.468201 
	C296.428528,840.528442 280.687378,859.502380 265.066345,878.574707 
	C262.772949,881.374756 260.814453,881.754883 258.090393,879.169739 
	C255.437683,876.652283 252.545914,874.365662 249.617584,872.166138 
	C246.964508,870.173401 247.092316,868.457581 249.185425,866.015930 
	C254.596298,859.703491 259.774414,853.191528 265.544769,846.150024 
	C253.295471,845.343384 244.897507,839.177429 238.925812,829.526917 
	C234.712570,822.718140 233.626999,815.216614 235.223328,807.399719 
	C238.554779,791.086121 256.370117,774.364197 275.792419,778.880737 
M287.223480,818.377319 
	C287.415222,817.401917 287.698975,816.434570 287.784393,815.449951 
	C288.566925,806.427734 283.857422,799.792480 275.252289,797.738770 
	C267.230438,795.824341 258.157684,801.735596 254.919403,810.986511 
	C252.327820,818.390076 255.552383,826.116333 262.837250,829.958435 
	C271.981079,834.780823 281.304596,830.583862 287.223480,818.377319 
z"/>
<path fill="#000000" opacity="1.000000" stroke="none" 
	d="
M867.624817,317.509705 
	C871.919678,323.850037 873.128601,330.628967 872.780640,338.757141 
	C879.795349,334.821564 886.237549,331.205322 892.681580,327.592499 
	C898.882019,324.116272 898.882935,324.117767 902.400391,330.394684 
	C908.550110,341.368927 908.602783,341.461609 897.501465,347.778015 
	C876.073730,359.969849 854.548096,371.989990 833.148682,384.231049 
	C829.990540,386.037628 828.383362,385.410156 826.947632,382.338501 
	C825.751709,379.779816 824.420776,377.242401 822.816528,374.926270 
	C820.453003,371.513977 819.684021,368.645447 825.548523,366.574310 
	C816.382751,363.324860 811.163147,357.324280 807.736633,349.609222 
	C805.113586,343.703186 803.867004,337.526398 805.004517,331.098816 
	C807.495544,317.021790 818.872009,305.923889 833.909241,302.698730 
	C847.083008,299.873199 859.021484,305.038788 867.624817,317.509705 
M828.312622,327.798431 
	C823.275513,332.915344 821.659546,338.923828 824.463196,345.583466 
	C829.362610,357.221436 843.152039,359.060150 852.967712,349.559357 
	C858.333130,344.365997 859.499634,336.838379 855.940308,330.376190 
	C852.324158,323.810852 844.950623,320.734558 837.642151,322.748840 
	C834.387817,323.645752 831.531067,325.310120 828.312622,327.798431 
z"/>
<path fill="#000000" opacity="1.000000" stroke="none" 
	d="
M231.847168,306.467072 
	C237.090958,324.317932 231.387253,336.884491 212.860748,348.315338 
	C219.552780,352.676575 225.975021,357.079651 232.625824,361.105072 
	C235.983765,363.137512 236.655380,365.115570 234.103455,368.151093 
	C233.252686,369.163086 232.623154,370.363159 231.909897,371.488281 
	C226.074448,380.693176 226.027863,380.768616 217.050552,375.013092 
	C196.304108,361.712189 175.636353,348.288361 154.864227,335.027954 
	C151.571976,332.926270 150.324539,330.983002 153.129623,327.556580 
	C154.912079,325.379333 156.399582,322.923126 157.764771,320.451385 
	C159.437088,317.423553 161.404129,315.701813 165.213379,318.333405 
	C165.587601,315.058838 165.639725,312.271484 166.254089,309.614105 
	C169.641647,294.961487 181.720673,284.118896 195.728912,282.977295 
	C209.849304,281.826538 225.847198,292.109924 231.847168,306.467072 
M191.108597,334.538666 
	C200.872116,338.524811 209.043045,336.008148 213.255630,327.717377 
	C217.233810,319.887939 214.413483,311.221100 206.267868,306.244110 
	C197.692795,301.004669 188.832611,302.267609 183.535690,309.484467 
	C177.211502,318.100891 179.853836,327.543549 191.108597,334.538666 
z"/>
<path fill="#000000" opacity="1.000000" stroke="none" 
	d="
M719.075684,782.887146 
	C718.254456,781.804016 717.707703,780.955383 717.033813,780.223999 
	C714.320007,777.278687 714.621826,775.081299 717.959167,772.546570 
	C729.582764,763.718201 729.557312,763.576172 738.134155,775.197754 
	C752.071899,794.083496 765.845154,813.091492 779.902710,831.887146 
	C782.580139,835.467041 782.303406,837.617676 778.627686,839.830383 
	C776.639465,841.027222 774.807312,842.499573 772.978333,843.941101 
	C770.017395,846.274719 767.124146,848.989441 764.242615,843.692017 
	C755.580261,861.802002 740.640869,870.425903 725.388000,866.443970 
	C709.599976,862.322388 696.831421,845.508423 697.795654,830.179504 
	C698.603760,817.331726 708.357605,800.457642 730.600220,799.050659 
	C726.671997,793.536133 722.981812,788.355896 719.075684,782.887146 
M745.984497,819.521606 
	C741.973083,815.344055 737.221741,812.843323 731.304626,813.849060 
	C725.120911,814.900146 720.647095,818.412903 718.426880,824.349487 
	C715.741699,831.529297 718.788147,837.417542 723.386597,842.554504 
	C731.421631,851.530457 745.237976,849.315674 750.228027,838.471008 
	C753.485657,831.391357 750.684692,825.591980 745.984497,819.521606 
z"/>
<path fill="#000000" opacity="1.000000" stroke="none" 
	d="
M629.567627,194.625732 
	C640.810425,170.055740 651.972229,145.865204 662.909729,121.573730 
	C664.497681,118.046989 665.994751,116.920998 669.565369,118.921883 
	C672.603577,120.624367 675.856812,121.995522 679.123962,123.223053 
	C682.727478,124.576935 682.846497,126.466728 681.301819,129.735519 
	C675.050964,142.963165 669.070129,156.318466 662.441833,170.825790 
	C670.620850,168.064453 678.061096,166.323776 684.784241,163.091446 
	C693.584778,158.860291 701.513367,158.970047 709.547668,164.418655 
	C711.840393,165.973511 714.829712,166.396927 716.858643,168.395096 
	C716.377747,170.697418 714.483704,170.812515 713.022949,171.369858 
	C704.778809,174.515228 696.585388,177.824432 688.215393,180.596786 
	C683.721680,182.085220 682.366272,183.958374 683.702942,188.830566 
	C686.914917,200.538483 689.461975,212.429138 692.250732,224.252350 
	C692.585999,225.673752 692.756775,227.133926 693.169861,229.545486 
	C685.455261,226.711136 678.588745,223.711838 672.233215,219.668228 
	C671.220154,219.023712 670.918518,217.058762 670.550903,215.636322 
	C668.718140,208.544281 666.813660,201.464218 665.258728,194.309464 
	C664.363525,190.190277 662.956177,189.138718 658.449097,190.253983 
	C651.869141,191.882202 650.464783,197.075424 648.204346,201.942078 
	C645.315002,208.162567 645.332825,208.172440 639.070068,205.206543 
	C636.661987,204.066116 634.312500,202.778015 631.838257,201.806946 
	C628.281433,200.410995 627.124756,198.351196 629.567627,194.625732 
z"/>
<path fill="#000000" opacity="1.000000" stroke="none" 
	d="
M648.947266,840.785522 
	C657.247559,836.447693 665.600342,833.759277 674.697754,835.068970 
	C689.116516,837.144836 699.955261,847.384583 703.160095,861.606262 
	C706.263916,875.379639 700.663696,888.844116 688.427551,897.027161 
	C668.703308,910.217957 645.711548,903.882385 636.766968,882.930725 
	C635.190125,879.237244 635.679504,877.367126 639.579834,875.701294 
	C651.360596,870.669739 662.976746,865.252441 674.647217,859.963745 
	C676.124756,859.294067 677.543762,858.495117 679.253418,857.621582 
	C676.640930,853.752319 673.094727,852.454773 669.219116,852.290039 
	C660.439087,851.917053 653.097107,855.067810 648.473511,862.711853 
	C646.415955,866.113586 644.453003,866.672302 641.298706,864.837036 
	C641.012512,864.670532 640.695801,864.555176 640.389160,864.425598 
	C630.345032,860.182861 629.963867,858.367004 637.335022,849.906555 
	C640.542297,846.225159 644.308533,843.250488 648.947266,840.785522 
M684.940979,876.362305 
	C685.483093,874.149719 686.425049,871.911682 684.061584,869.177734 
	C675.397461,873.046387 666.593018,876.977722 657.330444,881.113586 
	C660.573242,886.267883 664.890320,888.013184 669.895935,887.691406 
	C676.883911,887.242249 682.175537,883.973389 684.940979,876.362305 
z"/>
<path fill="#000000" opacity="1.000000" stroke="none" 
	d="
M880.860901,706.824463 
	C868.672180,718.996948 854.721252,721.365845 840.600769,714.123901 
	C837.234192,712.397278 836.523865,710.716248 838.238647,707.150452 
	C844.004700,695.159912 849.422241,683.001709 854.952637,670.898315 
	C855.354492,670.018677 855.592468,669.064148 856.017822,667.819336 
	C851.169495,666.104675 847.358215,667.831787 844.079834,670.764893 
	C837.807434,676.376709 835.186096,683.559387 836.379028,691.866333 
	C836.860413,695.218262 835.923401,696.912231 832.676758,697.506714 
	C831.869629,697.654541 831.111389,698.059631 830.323547,698.325195 
	C821.899353,701.166077 820.186584,700.003052 819.696716,691.116516 
	C818.778870,674.466736 829.746582,655.911377 843.918701,650.137634 
	C856.664246,644.945007 871.626648,648.358093 881.508484,658.712097 
	C890.983337,668.639709 893.196472,684.112305 886.982239,697.332092 
	C885.421936,700.651428 883.577942,703.814209 880.860901,706.824463 
M862.389954,683.794617 
	C860.086853,688.869568 857.783752,693.944519 855.461914,699.060852 
	C862.865356,701.621155 870.026733,697.813904 873.117859,690.299011 
	C876.153625,682.918640 874.034241,675.868103 867.621155,672.813782 
	C865.983398,676.244995 864.344055,679.679321 862.389954,683.794617 
z"/>
<path fill="#000000" opacity="1.000000" stroke="none" 
	d="
M132.808105,618.747192 
	C136.762100,615.552734 140.963638,613.611511 145.351776,611.941528 
	C148.955887,610.569885 150.847748,611.600769 152.025543,615.275391 
	C155.884888,627.316040 159.949265,639.290955 163.946671,651.287231 
	C164.509201,652.975464 165.137833,654.641602 165.825806,656.570129 
	C170.796814,654.554688 172.305191,650.642517 172.642731,646.513428 
	C173.330872,638.095642 171.017960,630.570557 163.869720,625.405457 
	C161.095047,623.400574 160.499496,621.621399 162.533508,618.901855 
	C163.226288,617.975586 163.715393,616.895935 164.287643,615.880737 
	C168.465302,608.470032 169.181259,608.352295 175.912933,613.979309 
	C187.480438,623.648682 193.075912,644.651306 187.806290,658.714355 
	C183.052902,671.399780 173.218231,678.084595 160.458679,680.016602 
	C147.639786,681.957520 136.847168,677.348938 129.025864,666.739563 
	C117.178673,650.669067 118.570984,632.254639 132.808105,618.747192 
M153.902939,660.364075 
	C151.018204,651.237183 148.133453,642.110229 145.229187,632.921570 
	C138.119797,636.075317 135.422058,643.212097 137.945007,650.776062 
	C140.513168,658.475586 146.788040,662.545654 153.902939,660.364075 
z"/>
<path fill="#000000" opacity="1.000000" stroke="none" 
	d="
M344.218323,893.492004 
	C328.643616,895.182129 316.639771,889.453552 308.062561,877.213074 
	C300.295868,866.129272 301.292908,854.415894 307.298309,842.728821 
	C309.145630,839.133789 311.024628,838.517944 314.691803,840.539062 
	C325.909546,846.721497 337.324188,852.547180 348.675964,858.485413 
	C349.974426,859.164734 351.187286,860.149841 353.298981,859.986572 
	C354.592468,856.819153 354.033905,853.653748 352.298981,850.758667 
	C347.509766,842.766602 340.226135,838.767639 331.047302,839.480530 
	C326.394989,839.841919 324.978210,838.115173 323.984650,834.153381 
	C321.517059,824.314087 322.748749,822.613220 333.024872,822.734253 
	C350.726990,822.942749 368.869812,837.102356 372.354553,853.429321 
	C376.254547,871.701721 363.257690,890.469238 344.218323,893.492004 
M337.945435,866.619385 
	C332.544006,863.769958 327.142578,860.920532 321.704620,858.051819 
	C318.832947,865.445129 322.165466,872.590393 329.835693,876.274780 
	C336.723480,879.583313 343.747986,877.846741 347.164368,871.896851 
	C344.709167,869.581482 341.420776,868.671692 337.945435,866.619385 
z"/>
<path fill="#000000" opacity="1.000000" stroke="none" 
	d="
M878.880859,529.873840 
	C871.390930,537.290161 869.602722,548.283875 874.935120,557.112915 
	C877.267151,560.974121 876.553955,563.076965 873.161743,565.166016 
	C872.458618,565.598999 871.841309,566.177856 871.209106,566.718384 
	C865.217529,571.841064 864.682983,571.762939 860.643066,565.140808 
	C851.468506,550.101990 855.074585,526.084412 868.518127,514.790283 
	C879.062378,505.931915 891.087036,504.528748 903.606079,509.788544 
	C916.279541,515.113159 923.023987,525.295959 924.127014,538.766602 
	C925.885010,560.235107 911.671204,576.581116 891.366089,577.123169 
	C883.397156,577.335938 882.478027,576.243164 882.939392,568.376770 
	C883.630798,556.588867 884.121155,544.789062 884.656067,532.992432 
	C884.729797,531.367554 885.006042,529.679993 884.199402,528.114319 
	C882.060730,527.362854 880.670105,528.703247 878.880859,529.873840 
M904.798462,531.772949 
	C902.762085,529.899780 900.777588,527.920593 897.316101,528.030579 
	C895.452698,537.832886 896.806519,547.569641 895.557739,557.808289 
	C901.054443,557.173889 904.516479,554.801514 906.656555,550.554688 
	C909.838379,544.240540 909.451172,538.116760 904.798462,531.772949 
z"/>
<path fill="#000000" opacity="1.000000" stroke="none" 
	d="
M126.838417,403.696838 
	C123.873924,389.341034 127.864769,377.177765 137.199677,366.927551 
	C147.931305,355.143677 162.912857,352.973053 177.242828,360.358704 
	C190.682541,367.285522 197.878937,381.771057 194.802933,396.732330 
	C191.723007,411.712677 183.894623,423.027618 168.678284,427.973633 
	C154.175797,432.687683 132.388809,424.236176 126.838417,403.696838 
M161.917435,376.418182 
	C161.253387,376.366364 160.589874,376.277985 159.925217,376.268219 
	C150.154175,376.124176 143.293686,382.627014 143.177902,392.130920 
	C143.063232,401.546051 151.065170,408.821289 161.759003,409.024536 
	C170.958099,409.199371 177.597565,402.824890 177.827759,393.597137 
	C178.047211,384.800018 173.650970,379.844666 161.917435,376.418182 
z"/>
<path fill="#000000" opacity="1.000000" stroke="none" 
	d="
M830.015137,781.617371 
	C825.372314,796.507996 816.226135,806.729736 801.512939,811.000244 
	C788.212585,814.860596 774.176880,809.174011 765.651733,797.343506 
	C757.781372,786.421631 757.385742,771.105591 764.893433,759.791870 
	C766.902710,756.764038 769.254395,753.890259 771.822571,751.319092 
	C783.483887,739.644348 798.642578,736.872742 811.951965,743.722412 
	C824.431824,750.145203 834.217346,765.498047 830.015137,781.617371 
M799.043701,792.877258 
	C806.634583,791.051392 811.970093,785.179688 812.458313,778.114563 
	C812.971741,770.684570 807.192444,762.691223 799.203003,760.052307 
	C793.191101,758.066528 787.729065,759.081726 783.053772,763.559509 
	C778.220642,768.188477 777.000305,773.753174 778.961853,780.003723 
	C781.438416,787.895020 789.091919,792.962463 799.043701,792.877258 
z"/>
<path fill="#000000" opacity="1.000000" stroke="none" 
	d="
M272.333984,241.332108 
	C261.492188,252.524078 250.848114,263.422791 239.986786,274.543976 
	C243.026962,277.200897 245.748932,277.707123 248.845200,277.107361 
	C257.594330,275.412720 265.093109,268.098877 266.664551,259.019012 
	C267.244293,255.669037 268.566742,254.279953 271.854584,254.687622 
	C272.182739,254.728302 272.519623,254.699890 272.852478,254.700790 
	C284.440338,254.732254 285.527802,256.350891 281.502136,267.576233 
	C274.705200,286.529083 252.860092,299.215027 235.552338,294.260376 
	C221.686829,290.291168 211.575653,277.867218 210.382553,263.333496 
	C209.268738,249.765610 219.033463,234.279510 232.511200,228.239120 
	C245.294754,222.509857 259.581482,225.332642 269.615143,235.696350 
	C271.019470,237.146866 273.217346,238.363815 272.333984,241.332108 
M251.041153,245.346878 
	C245.901962,240.673340 238.227264,241.352615 232.540817,246.984299 
	C226.711548,252.757446 225.902222,260.147614 230.663483,265.632904 
	C237.390091,259.061401 244.114700,252.491852 251.041153,245.346878 
z"/>
<path fill="#000000" opacity="1.000000" stroke="none" 
	d="
M701.569824,215.841751 
	C705.060669,197.553909 720.921021,185.000992 737.649658,186.904831 
	C757.457092,189.159058 772.178467,205.180099 771.279907,223.709534 
	C770.903015,231.481964 767.340149,238.041473 762.694458,244.089264 
	C760.406555,247.067673 758.452881,245.316299 756.374512,243.779846 
	C745.930115,236.058929 735.466370,228.364120 724.992371,220.683456 
	C723.936157,219.908951 722.765259,219.290833 721.440369,218.472092 
	C718.479980,222.358871 719.435669,226.207840 721.251953,229.751770 
	C725.177490,237.411285 731.595520,241.986069 740.189453,242.547272 
	C744.042908,242.798904 745.387756,244.099289 745.787048,247.725540 
	C746.867493,257.538574 748.653687,260.756866 734.898560,258.334747 
	C718.139343,255.383621 703.748657,240.508377 701.261597,224.192810 
	C700.851807,221.504578 700.924988,218.890854 701.569824,215.841751 
M751.603088,211.069778 
	C744.409912,202.209915 734.660950,200.736084 728.578491,208.076141 
	C735.605164,213.313538 742.590027,218.578583 749.646118,223.746368 
	C752.028320,225.491089 753.333008,224.286575 753.753052,221.764954 
	C754.342590,218.226105 754.048645,214.812134 751.603088,211.069778 
z"/>
<path fill="#000000" opacity="1.000000" stroke="none" 
	d="
M123.422157,469.141174 
	C128.794785,466.732056 134.103424,466.515839 139.465683,466.781708 
	C144.693314,467.040894 145.354462,468.082672 144.964386,473.257477 
	C143.988953,486.198059 143.206772,499.153290 142.365768,512.103821 
	C142.292007,513.239685 142.355957,514.384460 142.355957,515.523865 
	C148.233215,515.514832 153.516418,510.530914 154.572861,503.756042 
	C155.556229,497.449463 155.870483,491.065674 151.994171,485.404724 
	C150.587555,483.350494 150.709702,481.803253 152.773026,480.339203 
	C153.991409,479.474670 155.054199,478.393951 156.215851,477.445831 
	C162.649933,472.194183 163.521500,472.362549 167.458878,479.634308 
	C175.850571,495.132446 172.290359,524.968689 150.834946,533.812317 
	C138.927582,538.720398 127.136116,537.658447 116.738350,529.832397 
	C106.207512,521.906250 101.843460,510.853577 103.224197,497.768005 
	C104.600471,484.724731 110.844406,474.884644 123.422157,469.141174 
M119.229019,505.236816 
	C120.114723,509.170105 122.209709,512.226624 125.706779,514.308716 
	C128.706726,516.094849 130.399933,515.440796 130.601166,511.807556 
	C130.950516,505.500153 131.406967,499.195892 131.591705,492.883667 
	C131.656250,490.678680 132.511658,488.288605 131.041611,486.207977 
	C122.372139,487.054138 117.258453,494.940948 119.229019,505.236816 
z"/>
<path fill="#000000" opacity="1.000000" stroke="none" 
	d="
M752.952515,278.043457 
	C746.659180,271.220123 746.598511,271.153168 753.249390,265.129547 
	C766.323303,253.288605 779.534363,241.598190 792.537354,229.680450 
	C795.178406,227.259811 796.883118,227.408707 799.044556,230.019791 
	C801.995300,233.584579 805.144165,236.985382 807.870056,240.073395 
	C807.819336,242.675751 805.695557,243.216583 805.068481,245.281708 
	C811.956543,246.856918 817.980591,250.006546 822.876831,255.245560 
	C834.711914,267.909058 834.395386,282.516541 821.485718,294.817535 
	C812.814880,303.079437 803.697388,310.871063 794.861755,318.962677 
	C792.837524,320.816437 791.256287,320.973694 789.437378,318.822235 
	C787.504272,316.535675 785.447937,314.352997 783.437378,312.132355 
	C778.368835,306.533966 778.408325,306.582306 783.899597,301.721405 
	C791.126343,295.324066 798.323730,288.892029 805.451965,282.385254 
	C811.536072,276.831635 812.420166,270.897797 808.204773,265.183350 
	C803.411133,258.685059 796.041992,256.723358 789.347412,260.590759 
	C782.227295,264.704041 776.887268,271.053558 770.640564,276.273132 
	C768.472412,278.084747 766.338501,279.978149 764.440491,282.063171 
	C761.130981,285.698730 758.403442,285.271057 755.793884,281.332367 
	C755.064880,280.232025 754.064148,279.311676 752.952515,278.043457 
z"/>
<path fill="#000000" opacity="1.000000" stroke="none" 
	d="
M558.159546,171.907394 
	C557.556641,185.932419 557.581421,183.163177 546.199768,183.133865 
	C542.388916,183.124054 537.989197,183.584747 538.723450,176.760071 
	C529.401245,183.907318 519.693909,184.054565 509.718781,181.110504 
	C500.427002,178.368134 495.346741,170.990402 495.624969,161.216034 
	C495.875824,152.403244 501.249847,146.207169 510.703003,143.793793 
	C518.266418,141.862885 525.948547,142.951080 533.585022,142.825150 
	C535.311707,142.796677 537.551270,143.623840 538.438660,141.389496 
	C539.160339,139.572449 538.202881,137.751144 537.173767,136.231293 
	C535.069946,133.124313 531.911377,131.704269 528.288879,131.343384 
	C521.897766,130.706680 515.577820,131.005890 509.828888,134.219986 
	C506.731110,135.951889 504.881256,135.418701 503.816559,132.047287 
	C503.617676,131.417374 503.261780,130.837784 502.987579,130.230789 
	C498.858002,121.089340 499.075745,120.591248 508.613464,117.557480 
	C518.019470,114.565620 527.584839,114.071922 537.229919,116.045952 
	C550.900757,118.843918 559.082581,128.513504 559.135559,142.479431 
	C559.172180,152.126190 558.517273,161.775589 558.159546,171.907394 
M524.736694,169.539856 
	C530.553162,169.324539 535.635864,167.563416 538.038025,161.801666 
	C539.062561,159.344269 540.000183,155.768311 535.529114,155.417099 
	C530.759949,155.042480 525.925964,155.113419 521.145081,155.401627 
	C517.952637,155.594070 515.497803,157.230286 515.148132,160.885117 
	C514.803040,164.491821 516.296692,167.000916 519.638855,168.305054 
	C521.014343,168.841766 522.512146,169.065140 524.736694,169.539856 
z"/>
<path fill="#000000" opacity="1.000000" stroke="none" 
	d="
M628.924561,135.052979 
	C632.537048,138.434219 634.951294,142.146149 636.263000,146.575180 
	C637.010559,149.099442 636.526794,150.773285 633.660522,151.337540 
	C631.871033,151.689819 630.061951,152.120117 628.379517,152.804871 
	C623.481750,154.798172 620.287720,154.479233 617.226379,148.963394 
	C612.552856,140.542801 599.738953,139.836395 592.924255,146.726135 
	C586.548340,153.172272 585.495972,164.564178 590.679871,171.021927 
	C596.127258,177.807938 605.472717,178.799408 614.005432,173.492355 
	C614.287170,173.317123 614.531799,172.943283 614.811462,172.924347 
	C621.303528,172.484222 623.644714,178.462555 627.658020,181.661072 
	C630.679016,184.068756 626.953003,186.058258 625.332581,187.455215 
	C619.525818,192.461212 612.550903,194.340912 604.969238,194.215103 
	C588.410889,193.940323 573.452393,183.486038 568.889282,168.991272 
	C561.835083,146.583740 580.007141,123.656372 603.441956,125.332199 
	C612.807739,126.001953 621.401062,128.597885 628.924561,135.052979 
z"/>
<path fill="#000000" opacity="1.000000" stroke="none" 
	d="
M890.087769,589.856445 
	C900.151550,588.262390 909.782471,586.734497 920.210510,585.080139 
	C919.716980,592.045776 917.869202,597.818787 916.083130,603.583679 
	C915.547668,605.312073 913.752136,605.175293 912.281311,605.403015 
	C899.638672,607.360535 886.998108,609.331543 874.358765,611.310425 
	C873.407288,611.459412 872.470215,611.700439 871.262146,611.954102 
	C871.940491,614.354553 873.892456,615.153259 875.381836,616.257446 
	C884.876892,623.296204 894.374634,630.334229 904.000427,637.191589 
	C906.855042,639.225220 907.959167,641.335327 906.681702,644.751831 
	C905.136536,648.884338 905.200317,653.552124 902.678223,657.675049 
	C897.997986,655.963623 894.630066,652.631042 890.926758,649.937500 
	C877.061768,639.852600 863.431396,629.444885 849.541565,619.395142 
	C846.153076,616.943481 845.429260,614.555603 846.428406,610.546204 
	C850.022339,596.123718 849.872498,596.090027 864.505371,593.830261 
	C872.889771,592.535400 881.271851,591.225647 890.087769,589.856445 
z"/>
<path fill="#000000" opacity="1.000000" stroke="none" 
	d="
M141.013184,551.817139 
	C149.926559,554.227356 158.430435,556.588806 166.968430,558.819763 
	C169.665100,559.524353 171.044800,560.859314 171.688843,563.761780 
	C175.142441,579.326294 175.245422,579.328552 161.749283,587.214417 
	C146.936691,595.869324 132.103546,604.489197 117.258316,613.087952 
	C115.849823,613.903809 114.594421,615.136536 112.100441,615.146240 
	C110.133011,609.338013 109.696144,603.102356 109.419830,596.919861 
	C109.322479,594.741577 112.064682,594.126953 113.737976,593.166199 
	C125.283676,586.537170 136.876419,579.989990 149.349777,572.907898 
	C145.130371,571.580261 141.670441,570.393738 138.155014,569.404419 
	C128.864807,566.789978 119.600914,564.052185 110.223488,561.790771 
	C105.908615,560.750183 103.494415,559.076111 103.448540,554.246582 
	C103.411156,550.310730 102.468613,546.383484 101.784676,541.415588 
	C115.465904,543.919983 127.856850,548.578064 141.013184,551.817139 
z"/>
<path fill="#000000" opacity="1.000000" stroke="none" 
	d="
M881.179199,758.064575 
	C879.147461,761.145752 877.089539,763.801270 875.538513,766.725647 
	C873.655212,770.276489 871.762146,770.376343 868.496521,768.223999 
	C849.755127,755.871765 830.884521,743.715393 812.051575,731.502258 
	C807.866150,728.788025 803.693054,726.051758 799.442627,723.442444 
	C797.102417,722.005920 796.598633,720.396118 798.282532,718.151062 
	C799.079407,717.088501 799.762695,715.941040 800.502258,714.835327 
	C807.365234,704.574280 807.368835,704.569275 817.948914,711.442749 
	C838.582947,724.847717 859.193359,738.289429 879.868591,751.630554 
	C882.529480,753.347595 884.125183,754.907654 881.179199,758.064575 
z"/>
<path fill="#000000" opacity="1.000000" stroke="none" 
	d="
M97.725449,447.350464 
	C85.882698,444.928894 85.884811,444.929352 88.481697,433.266693 
	C88.770279,431.970642 89.061028,430.672516 89.275330,429.363007 
	C89.733429,426.563721 90.975319,425.449158 94.070328,426.124908 
	C121.023415,432.009308 147.994858,437.811401 174.990540,443.496948 
	C178.283981,444.190582 179.068176,445.668457 178.304916,448.707886 
	C177.414398,452.254150 176.659607,455.841492 176.022079,459.442230 
	C175.407593,462.912781 173.459625,463.613403 170.274765,462.922607 
	C146.239151,457.709534 122.187645,452.569824 97.725449,447.350464 
z"/>
<path fill="#000000" opacity="1.000000" stroke="none" 
	d="
M628.417480,919.587097 
	C626.588684,920.091553 625.105835,920.370667 623.709839,920.885376 
	C619.599731,922.400940 615.828552,923.241394 615.026489,916.351318 
	C610.516113,921.856445 605.870361,925.699097 599.909363,927.867004 
	C596.689209,929.038208 594.807678,928.619507 594.175171,925.030823 
	C593.973633,923.887573 593.588501,922.777710 593.359314,921.638123 
	C592.740112,918.559082 590.692932,915.406677 591.667114,912.466675 
	C592.699036,909.352783 596.783936,910.182617 599.362549,908.831360 
	C606.938538,904.861389 609.585571,898.825806 607.184326,888.971619 
	C605.101257,880.423218 602.808105,871.920410 600.356689,863.470215 
	C599.355896,860.020264 599.894348,858.160522 603.695862,857.421692 
	C607.435669,856.694824 611.114258,855.589722 614.757629,854.451843 
	C617.158630,853.701904 618.552246,854.231567 619.214050,856.740479 
	C624.251709,875.840759 629.309692,894.935791 634.391052,914.024475 
	C635.779236,919.239258 631.445801,918.457642 628.417480,919.587097 
z"/>
<path fill="#000000" opacity="1.000000" stroke="none" 
	d="
M270.950256,194.832123 
	C274.602295,192.829575 274.602295,192.829575 279.182068,196.153030 
	C281.143768,190.744186 283.769226,185.866455 287.951904,181.886475 
	C291.002869,178.983414 293.361298,178.199997 295.624329,182.481842 
	C295.931763,183.063507 296.418915,183.547546 296.793243,184.096970 
	C298.658325,186.834595 301.610657,189.404724 302.081055,192.367172 
	C302.611603,195.708359 297.953156,196.481918 295.920227,198.788757 
	C290.829193,204.565857 290.075012,210.827377 294.778564,217.904312 
	C300.022308,225.793991 305.597107,233.472382 311.252563,241.075516 
	C313.623413,244.262817 313.834991,246.414719 310.075562,248.592606 
	C306.924957,250.417770 304.061127,252.744400 301.105835,254.897766 
	C299.408112,256.134796 297.911774,256.550842 296.448853,254.526993 
	C284.281158,237.694000 271.772430,221.105087 260.219971,203.832672 
	C260.145508,203.721329 260.210724,203.516571 260.210724,202.755768 
	C263.495819,200.326050 267.072754,197.680496 270.950256,194.832123 
z"/>
<path fill="#000000" opacity="1.000000" stroke="none" 
	d="
M355.273499,197.524872 
	C359.174103,191.231094 365.015259,188.726288 370.578766,190.684784 
	C375.985809,192.588226 379.703125,198.626511 378.831818,204.090820 
	C377.902679,209.917511 373.160126,214.213943 367.174561,214.651474 
	C358.608185,215.277618 352.708557,207.071686 355.273499,197.524872 
z"/>
<path fill="#000000" opacity="1.000000" stroke="none" 
	d="
M524.594727,887.095093 
	C521.465820,880.240417 522.283997,874.564514 526.675598,870.833862 
	C530.880310,867.262024 536.620361,866.746643 541.047119,869.575745 
	C545.382935,872.346680 547.373901,876.486511 546.920105,881.445007 
	C546.482544,886.226196 543.997742,889.919128 539.142212,891.457581 
	C533.514404,893.240784 528.654724,892.090698 524.594727,887.095093 
z"/>
</svg>